<svg width="232" height="227" viewBox="0 0 232 227" fill="none" xmlns="http://www.w3.org/2000/svg">
<path d="M205 118C205 173.781 159.781 219 104 219C48.2192 219 3 173.781 3 118C3 62.2193 48.2192 17 104 17C159.781 17 205 62.2193 205 118Z" fill="#F4DD67"/>
<path d="M186 117.5C186 162.511 149.511 199 104.5 199C59.4888 199 23 162.511 23 117.5C23 72.4888 59.4888 36 104.5 36C149.511 36 186 72.4888 186 117.5Z" fill="#FF0020"/>
<path d="M56.2448 130.314L20.3914 139.278L22.6929 143.727C26.5389 151.163 33.6284 156.383 41.8705 157.848L54.0039 160.005L59.7129 160.793C66.4824 161.726 73.3535 160.048 78.93 156.098L83.695 152.723L56.2448 130.314Z" fill="#FF5369" stroke="black" stroke-width="2.24084"/>
<path d="M22.8992 171.049L16.4071 146.338C15.1164 141.426 19.2955 136.805 24.3129 137.597L33.0422 147.517C35.415 150.213 38.304 152.407 41.5385 153.968L51.577 158.814C52.372 159.198 52.8676 160.013 52.8428 160.895L51.7632 199.22L31.5489 183.954C27.2991 180.745 24.2525 176.199 22.8992 171.049Z" fill="#38A8E9"/>
<path d="M133.68 161.632L121.789 139.277L115.503 144.454C113.522 146.086 112.643 148.704 113.237 151.201L120.669 182.414L125.711 186.335L126.509 185.892C132.24 182.708 135.795 176.667 135.795 170.11C135.795 167.154 135.068 164.242 133.68 161.632Z" fill="#38A8E9"/>
<path d="M22.8992 171.049L16.4071 146.338C15.1164 141.426 19.2955 136.805 24.3129 137.597L33.0422 147.517C35.415 150.213 38.304 152.407 41.5385 153.968L51.577 158.814C52.372 159.198 52.8676 160.013 52.8428 160.895L51.7632 199.22L31.5489 183.954C27.2991 180.745 24.2525 176.199 22.8992 171.049Z" stroke="black" stroke-width="2.24084"/>
<path d="M133.68 161.632L121.789 139.277L115.503 144.454C113.522 146.086 112.643 148.704 113.237 151.201L120.669 182.414L125.711 186.335L126.509 185.892C132.24 182.708 135.795 176.667 135.795 170.11C135.795 167.154 135.068 164.242 133.68 161.632Z" stroke="black" stroke-width="2.24084"/>
<path d="M186.417 171.764L185.376 171.693C180.928 171.386 176.833 169.159 174.157 165.592C172.165 162.936 171.088 159.705 171.088 156.385V152.307C171.088 150.378 170.575 148.483 169.603 146.817C167.677 143.518 167.621 139.451 169.455 136.099L170.182 134.771C170.783 133.672 171.229 132.496 171.507 131.275L178.37 101.183L180.322 93.3785C180.881 91.1404 181.933 89.055 183.399 87.2741C186.881 83.0465 192.332 80.9659 197.745 81.7986L198.783 81.9584C206.03 83.0732 211.796 88.6168 213.195 95.8133L213.925 99.5683C214.492 102.484 214.484 105.483 213.902 108.396L203.899 158.412C203.323 161.29 201.997 163.966 200.055 166.167C196.627 170.052 191.586 172.121 186.417 171.764Z" fill="#FBAC32" stroke="black" stroke-width="2.24084"/>
<g filter="url(#filter0_d_158_65)">
<path d="M19.4957 86.9534L49.5223 59.1675L51.1197 54.1091C52.2689 50.4702 54.4887 47.2624 57.4894 44.9047C59.6226 43.2286 62.0906 42.0295 64.7267 41.3884L68.305 40.5181C71.0857 39.8418 73.9371 39.5 76.7988 39.5H78.7168C83.1324 39.5 87.5242 40.1455 91.753 41.416L93.373 41.9027C94.3892 42.208 95.3819 42.5865 96.3434 43.0352L100.354 44.9068C107.043 48.0281 110.785 55.267 109.465 62.5288L131.313 64.7696H146.63C147.98 64.7696 149.314 65.0627 150.54 65.6286C153.846 67.154 155.962 70.462 155.962 74.1021V76.6901C155.962 79.5022 155.076 82.2427 153.429 84.5224L152.239 86.1704C149.92 89.3814 146.685 91.8173 142.959 93.159L142.351 93.3778C137.401 95.1596 131.974 95.0876 127.074 93.1753L116.1 88.893C113.22 87.7689 110.68 85.9169 108.729 83.5179L108.046 82.6774C107.951 82.5603 107.761 82.6186 107.748 82.769L107.275 88.2666C107.241 88.6589 107.268 89.0541 107.356 89.4381C107.625 90.6202 108.441 91.6033 109.554 92.0851L115.676 94.7361C119.437 96.3646 122.482 99.2994 124.247 102.998L125.638 105.912C126.8 108.346 127.569 110.949 127.918 113.624L128.079 114.86C128.733 119.869 128.242 124.961 126.645 129.753L125.711 132.555L154.964 126.054C155.587 125.916 156.098 125.473 156.325 124.877L159.009 117.799C161.021 112.495 164.844 108.075 169.802 105.321L172.335 103.914C175.515 102.147 179.205 101.528 182.787 102.16L183.096 102.215C185.509 102.641 187.776 103.666 189.689 105.196L190.967 106.219C193.628 108.347 195.177 111.57 195.177 114.977V115.295C195.177 118.422 193.788 121.388 191.385 123.39C189.491 124.968 187.104 125.832 184.639 125.832H178.179C177.576 125.832 176.989 125.637 176.507 125.275C174.818 124.008 172.389 125.005 172.076 127.092L170.211 139.55C170.071 140.484 170.06 141.434 170.179 142.371L172.768 162.806L159.323 154.963L135.795 166.168C133.199 157.267 129.128 148.865 123.753 141.311L121.509 138.157L121.036 138.788C118.587 142.054 115.386 144.682 111.706 146.448L117.427 157.587C119.19 161.017 120.109 164.818 120.109 168.674V178.746C120.109 181.021 121.303 183.13 123.254 184.301C124.819 185.24 125.915 186.795 126.273 188.585L126.932 191.88C127.236 193.402 127.287 194.963 127.082 196.501L126.626 199.922C126.425 201.43 125.11 202.537 123.59 202.48L53.4165 199.822C52.8086 199.798 52.3301 199.295 52.3385 198.686L52.866 160.713C52.8757 160.01 53.4484 159.445 54.1514 159.445H54.7683C65.337 159.445 75.7798 157.151 85.3757 152.723C79.9166 152.723 74.6 150.979 70.2006 147.747L63.9056 143.122C54.9397 136.535 49.9331 125.845 50.613 114.74C50.9981 108.451 49.5595 102.183 46.4701 96.6907L46.1611 96.1414L37.5301 111.006C36.5728 112.654 35.271 114.077 33.7136 115.176L33.192 115.545C29.1671 118.386 23.8339 118.547 19.6449 115.953C16.5661 114.048 14.4853 110.88 13.9585 107.298L13.4765 104.02C12.5451 97.6867 14.7971 91.3013 19.4957 86.9534Z" fill="#D9D9D9"/>
<path d="M214.488 102L214.93 102.09C217.4 102.596 219.685 103.768 221.537 105.478C224.375 108.097 225.988 111.782 225.988 115.644V116.038C225.988 118.779 225.224 121.465 223.782 123.795L221.488 127.5L222.058 128.14C224.548 130.937 225.667 134.697 225.111 138.401C224.598 141.822 222.703 144.882 219.869 146.866L218.706 147.681V150.817C218.706 153.503 217.803 156.112 216.144 158.224C213.87 161.117 210.395 162.806 206.716 162.806H204.446C202.804 162.806 201.217 162.213 199.977 161.136C196.662 158.257 196.896 153.039 200.456 150.468L202.488 149C197.959 144.715 198.174 137.441 202.947 133.43L203.988 132.555L202.939 131.489C201.41 129.936 200.766 127.716 201.226 125.586C201.651 123.622 202.963 121.967 204.779 121.107L206.937 120.085C210.429 118.431 212.836 115.109 213.319 111.275L214.488 102Z" fill="#D9D9D9"/>
<path d="M46.1611 96.1414L46.4701 96.6907C49.5595 102.183 50.9981 108.451 50.613 114.74V114.74C49.9331 125.845 54.9397 136.535 63.9056 143.122L70.2006 147.747C74.6 150.979 79.9166 152.723 85.3757 152.723V152.723M46.1611 96.1414V96.1414C47.2618 84.3999 51.4526 73.1594 58.3071 63.5631L59.0459 62.5288M46.1611 96.1414L37.5301 111.006C36.5728 112.654 35.271 114.077 33.7136 115.176L33.192 115.545C29.1671 118.386 23.8339 118.547 19.6449 115.953V115.953C16.5661 114.048 14.4853 110.88 13.9585 107.298L13.4765 104.02C12.5451 97.6867 14.7971 91.3013 19.4957 86.9534L49.5223 59.1675L51.1197 54.1091C52.2689 50.4702 54.4887 47.2624 57.4894 44.9047V44.9047C59.6226 43.2286 62.0906 42.0295 64.7267 41.3884L68.305 40.5181C71.0857 39.8418 73.9371 39.5 76.7988 39.5H78.7168C83.1324 39.5 87.5242 40.1455 91.753 41.416L93.373 41.9027C94.3892 42.208 95.3819 42.5865 96.3434 43.0352L100.354 44.9068C107.043 48.0281 110.785 55.267 109.465 62.5288V62.5288M85.3757 152.723L111.706 146.448M85.3757 152.723V152.723C75.7798 157.151 65.337 159.445 54.7683 159.445H54.1514C53.4484 159.445 52.8757 160.01 52.866 160.713L52.3385 198.686C52.3301 199.295 52.8086 199.798 53.4165 199.821L123.59 202.48C125.11 202.537 126.425 201.43 126.626 199.922L127.082 196.501C127.287 194.963 127.236 193.402 126.932 191.88L126.273 188.585C125.915 186.795 124.819 185.24 123.254 184.301V184.301C121.303 183.13 120.109 181.021 120.109 178.746V168.674C120.109 164.818 119.19 161.017 117.427 157.587L111.706 146.448M125.711 132.555L126.645 129.753C128.242 124.961 128.733 119.869 128.079 114.86L127.918 113.624C127.569 110.949 126.8 108.346 125.638 105.912L124.247 102.998C122.482 99.2994 119.437 96.3646 115.676 94.7361L109.554 92.0851C108.441 91.6033 107.625 90.6202 107.356 89.4381V89.4381C107.268 89.0541 107.241 88.6589 107.275 88.2666L107.748 82.769M125.711 132.555L121.509 138.157M125.711 132.555L154.964 126.054C155.587 125.916 156.098 125.473 156.325 124.877L159.009 117.799C161.021 112.495 164.844 108.075 169.802 105.321L172.335 103.914C175.515 102.147 179.205 101.528 182.787 102.16L183.096 102.215C185.509 102.641 187.776 103.666 189.689 105.196L190.967 106.219C193.628 108.347 195.177 111.57 195.177 114.977V115.295C195.177 118.422 193.788 121.388 191.385 123.39V123.39C189.491 124.968 187.104 125.832 184.639 125.832H178.179C177.576 125.832 176.989 125.637 176.507 125.275V125.275C174.818 124.008 172.389 125.005 172.076 127.092L170.211 139.55C170.071 140.484 170.06 141.433 170.179 142.371L172.768 162.806L159.323 154.963M109.465 62.5288L131.313 64.7696H146.63C147.98 64.7696 149.314 65.0627 150.54 65.6286V65.6286C153.846 67.154 155.962 70.462 155.962 74.1021V76.6901C155.962 79.5022 155.076 82.2427 153.429 84.5224L152.239 86.1704C149.92 89.3814 146.685 91.8173 142.959 93.1589L142.351 93.3778C137.401 95.1596 131.974 95.0876 127.074 93.1753L116.1 88.893C113.22 87.7689 110.68 85.9169 108.729 83.5179L108.046 82.6774C107.951 82.5603 107.761 82.6186 107.748 82.769V82.769M109.465 62.5288L108.009 65.9245C105.711 71.2867 105.618 77.3382 107.748 82.769V82.769M60.7265 125.832V125.832C62.9317 130.243 66.0025 134.22 69.7235 137.456L73.3543 140.613C75.7285 142.677 78.5828 144.113 81.6556 144.789V144.789C84.1784 145.343 86.7884 145.372 89.3229 144.874L90.5841 144.626C93.4969 144.053 96.2842 142.965 98.8152 141.414L107.784 135.916M60.7265 125.832L64.0878 122.471M60.7265 125.832L56.805 128.073M121.509 138.157L121.036 138.788C118.587 142.054 115.386 144.682 111.706 146.448V146.448M121.509 138.157L123.753 141.311C129.128 148.865 133.199 157.267 135.795 166.168V166.168L159.323 154.963M221.488 127.5L223.782 123.795C225.224 121.465 225.988 118.779 225.988 116.038V115.644C225.988 111.782 224.375 108.097 221.537 105.478V105.478C219.685 103.768 217.4 102.596 214.93 102.09L214.488 102L213.319 111.275C212.836 115.109 210.429 118.431 206.937 120.085L204.779 121.107C202.963 121.967 201.651 123.622 201.226 125.586V125.586C200.766 127.716 201.41 129.936 202.939 131.489L203.988 132.555M221.488 127.5L222.058 128.14C224.548 130.937 225.667 134.697 225.111 138.401V138.401C224.598 141.822 222.703 144.882 219.869 146.866L218.706 147.681M221.488 127.5L218.763 130.69C215.056 135.029 208.657 135.836 203.988 132.555V132.555M218.706 147.681V150.817C218.706 153.503 217.803 156.112 216.144 158.224V158.224C213.87 161.117 210.395 162.806 206.716 162.806H204.446C202.804 162.806 201.217 162.213 199.977 161.136V161.136C196.662 158.257 196.896 153.039 200.456 150.468L202.488 149M218.706 147.681L214.42 148.653C210.503 149.543 206.45 149.66 202.488 149V149M159.323 154.963V147.681M203.988 132.555L202.947 133.43C198.174 137.441 197.959 144.715 202.488 149V149M75.2919 63.6492H76.1692C79.457 63.6492 82.5128 65.3429 84.2553 68.1309V68.1309M100.501 64.7696L99.8081 64.8467C96.9717 65.1618 94.2906 66.3039 92.0982 68.1309V68.1309M71.9307 95.5812H79.6827C80.8561 95.5812 82.0217 95.7703 83.1349 96.1414V96.1414" stroke="black" stroke-width="2.24084"/>
</g>
<circle cx="103.488" cy="116.5" r="21.5" fill="black"/>
<ellipse cx="103.488" cy="114.5" rx="18.5" ry="21.5" fill="#D9D9D9"/>
<ellipse cx="105.488" cy="110" rx="11.5" ry="9" fill="black"/>
<path d="M177.757 178.693L178.931 170.089L186.774 164.487L196.297 170.089L195.462 180.94C195.282 183.292 194.057 185.438 192.125 186.791C190.486 187.938 188.473 188.419 186.493 188.136L184.692 187.878C182.781 187.605 181.028 186.664 179.745 185.22C178.161 183.439 177.435 181.054 177.757 178.693Z" fill="#FF0020"/>
<path d="M192.252 66.7075L193.047 65.5707C194.407 63.6277 196.502 62.3248 198.847 61.9642C201.157 61.6087 203.513 62.1989 205.384 63.6016L206.554 64.4794C209.619 66.7781 211.423 70.3856 211.423 74.2166V74.6774C211.423 75.5396 211.338 76.3996 211.169 77.2451L209.182 87.178L199.327 94.4607L189.803 82.1361L189.649 76.0767C189.6 74.1554 189.885 72.2403 190.493 70.417L190.706 69.7791C191.07 68.6861 191.591 67.6515 192.252 66.7075Z" fill="#FF0020"/>
<path d="M186.774 164.487L196.297 170.089L195.462 180.94C195.282 183.292 194.057 185.438 192.125 186.791V186.791C190.486 187.938 188.473 188.419 186.493 188.136L184.692 187.878C182.781 187.605 181.028 186.664 179.745 185.22V185.22C178.161 183.439 177.435 181.054 177.757 178.693L178.931 170.089L186.774 164.487ZM186.774 164.487L189.559 159.612C190.685 157.641 191.557 155.536 192.155 153.346L196.297 138.157M199.327 94.4607L189.803 82.1361L189.649 76.0767C189.6 74.1554 189.885 72.2403 190.493 70.417L190.706 69.7791C191.07 68.6861 191.591 67.6515 192.252 66.7075L193.047 65.5707C194.407 63.6277 196.502 62.3248 198.847 61.9642V61.9642C201.157 61.6087 203.513 62.1989 205.384 63.6016L206.554 64.4794C209.619 66.7781 211.423 70.3856 211.423 74.2166V74.6774C211.423 75.5396 211.338 76.3996 211.169 77.2451L209.182 87.178L199.327 94.4607ZM199.327 94.4607L200.735 111.714C201.127 116.518 199.97 121.321 197.433 125.419L195.531 128.493C194.567 130.05 194.056 131.844 194.056 133.675V133.675" stroke="black" stroke-width="2.24084"/>
<g filter="url(#filter1_d_158_65)">
<ellipse cx="77.5327" cy="79.8953" rx="7.28272" ry="13.445" fill="#D9D9D9"/>
<path d="M77.5332 67.0108C79.241 67.011 80.9121 68.2972 82.1895 70.6553C83.4549 72.9916 84.2549 76.2575 84.2549 79.8956C84.2548 83.5335 83.4549 86.7996 82.1895 89.1358C80.9122 91.4937 79.2409 92.7801 77.5332 92.7803C75.8253 92.7803 74.1534 91.4939 72.876 89.1358C71.6105 86.7996 70.8106 83.5335 70.8105 79.8956C70.8105 76.2575 71.6105 72.9916 72.876 70.6553C74.1534 68.297 75.8253 67.0108 77.5332 67.0108Z" stroke="black" stroke-width="1.12042"/>
</g>
<g filter="url(#filter2_d_158_65)">
<ellipse cx="96.5799" cy="81.5759" rx="6.1623" ry="11.7644" fill="#D9D9D9"/>
<path d="M96.5797 70.3721C97.9685 70.3721 99.3619 71.4574 100.441 73.5176C101.506 75.5512 102.182 78.3995 102.182 81.5762C102.182 84.7529 101.506 87.6011 100.441 89.6348C99.3619 91.6949 97.9685 92.7803 96.5797 92.7803C95.191 92.7802 93.7975 91.6948 92.7184 89.6348C91.6532 87.6012 90.9782 84.7528 90.9781 81.5762C90.9781 78.3996 91.6533 75.5512 92.7184 73.5176C93.7975 71.4575 95.191 70.3722 96.5797 70.3721Z" stroke="black" stroke-width="1.12042"/>
</g>
<ellipse cx="82.0144" cy="80.4555" rx="2.80105" ry="7.28272" fill="black"/>
<ellipse cx="99.9412" cy="81.5759" rx="2.80105" ry="7.28272" fill="black"/>
<g filter="url(#filter3_d_158_65)">
<path d="M5.14461 136.037C9.21378 153.952 17.5544 170.468 29.3779 184.023C41.2015 197.578 56.1174 207.724 72.7155 213.502C89.3136 219.279 107.046 220.498 124.235 217.043C141.425 213.587 157.504 205.571 170.952 193.754L158.597 178.131C147.675 187.729 134.616 194.239 120.656 197.045C106.695 199.851 92.2941 198.862 78.8139 194.169C65.3337 189.477 53.2198 181.237 43.6172 170.228C34.0147 159.22 27.2408 145.806 23.936 131.256L5.14461 136.037Z" fill="#F4DD67"/>
</g>
<defs>
<filter id="filter0_d_158_65" x="7.66774" y="38.3796" width="223.923" height="174.186" filterUnits="userSpaceOnUse" color-interpolation-filters="sRGB">
<feFlood flood-opacity="0" result="BackgroundImageFix"/>
<feColorMatrix in="SourceAlpha" type="matrix" values="0 0 0 0 0 0 0 0 0 0 0 0 0 0 0 0 0 0 127 0" result="hardAlpha"/>
<feOffset dy="4.48168"/>
<feGaussianBlur stdDeviation="2.24084"/>
<feComposite in2="hardAlpha" operator="out"/>
<feColorMatrix type="matrix" values="0 0 0 0 0 0 0 0 0 0 0 0 0 0 0 0 0 0 0.25 0"/>
<feBlend mode="normal" in2="BackgroundImageFix" result="effect1_dropShadow_158_65"/>
<feBlend mode="normal" in="SourceGraphic" in2="effect1_dropShadow_158_65" result="shape"/>
</filter>
<filter id="filter1_d_158_65" x="66.25" y="66.4503" width="22.5654" height="34.89" filterUnits="userSpaceOnUse" color-interpolation-filters="sRGB">
<feFlood flood-opacity="0" result="BackgroundImageFix"/>
<feColorMatrix in="SourceAlpha" type="matrix" values="0 0 0 0 0 0 0 0 0 0 0 0 0 0 0 0 0 0 127 0" result="hardAlpha"/>
<feOffset dy="4"/>
<feGaussianBlur stdDeviation="2"/>
<feComposite in2="hardAlpha" operator="out"/>
<feColorMatrix type="matrix" values="0 0 0 0 0 0 0 0 0 0 0 0 0 0 0 0 0 0 0.25 0"/>
<feBlend mode="normal" in2="BackgroundImageFix" result="effect1_dropShadow_158_65"/>
<feBlend mode="normal" in="SourceGraphic" in2="effect1_dropShadow_158_65" result="shape"/>
</filter>
<filter id="filter2_d_158_65" x="86.4176" y="69.8115" width="20.3246" height="31.5288" filterUnits="userSpaceOnUse" color-interpolation-filters="sRGB">
<feFlood flood-opacity="0" result="BackgroundImageFix"/>
<feColorMatrix in="SourceAlpha" type="matrix" values="0 0 0 0 0 0 0 0 0 0 0 0 0 0 0 0 0 0 127 0" result="hardAlpha"/>
<feOffset dy="4"/>
<feGaussianBlur stdDeviation="2"/>
<feComposite in2="hardAlpha" operator="out"/>
<feColorMatrix type="matrix" values="0 0 0 0 0 0 0 0 0 0 0 0 0 0 0 0 0 0 0.25 0"/>
<feBlend mode="normal" in2="BackgroundImageFix" result="effect1_dropShadow_158_65"/>
<feBlend mode="normal" in="SourceGraphic" in2="effect1_dropShadow_158_65" result="shape"/>
</filter>
<filter id="filter3_d_158_65" x="1.14453" y="131.256" width="173.808" height="95.7086" filterUnits="userSpaceOnUse" color-interpolation-filters="sRGB">
<feFlood flood-opacity="0" result="BackgroundImageFix"/>
<feColorMatrix in="SourceAlpha" type="matrix" values="0 0 0 0 0 0 0 0 0 0 0 0 0 0 0 0 0 0 127 0" result="hardAlpha"/>
<feOffset dy="4"/>
<feGaussianBlur stdDeviation="2"/>
<feComposite in2="hardAlpha" operator="out"/>
<feColorMatrix type="matrix" values="0 0 0 0 0 0 0 0 0 0 0 0 0 0 0 0 0 0 0.25 0"/>
<feBlend mode="normal" in2="BackgroundImageFix" result="effect1_dropShadow_158_65"/>
<feBlend mode="normal" in="SourceGraphic" in2="effect1_dropShadow_158_65" result="shape"/>
</filter>
</defs>
</svg>
